<?xml version="1.0" encoding="UTF-8"?>
<!-- Uploaded to: SVG Repo, www.svgrepo.com, Generator: SVG Repo Mixer Tools -->
<svg width="800px" height="800px" viewBox="0 -58 256 256" version="1.1" xmlns="http://www.w3.org/2000/svg" xmlns:xlink="http://www.w3.org/1999/xlink" preserveAspectRatio="xMidYMid">

		<path d="M156.565464,70.3568084 C155.823426,62.6028163 155.445577,56.1490255 149.505494,51.6131676 C141.982638,45.8687002 133.461166,49.5960243 122.964463,45.8072968 C112.650326,43.3121427 105,34.1545727 105,23.2394367 C105,10.4046502 115.577888,0 128.626373,0 C138.29063,0 146.599638,5.70747659 150.259573,13.8825477 C155.861013,24.5221258 152.220489,35.3500418 159.258242,40.8041273 C167.591489,47.2621895 178.826167,42.5329154 191.362109,48.6517412 C195.390112,50.5026944 198.799584,53.4384578 201.202056,57.0769224 C203.604528,60.7153869 205,65.0565524 205,69.7183101 C205,80.633446 197.349674,89.7910161 187.035538,92.2861702 C176.538834,96.0748977 168.017363,92.3475736 160.494506,98.092041 C152.03503,104.551712 156.563892,115.358642 149.669352,126.774447 C145.756163,134.291567 137.802119,139.43662 128.626373,139.43662 C115.577888,139.43662 105,129.03197 105,116.197184 C105,106.873668 110.581887,98.832521 118.637891,95.1306146 C131.173833,89.0117889 142.408511,93.7410629 150.741758,87.2830007 C155.549106,83.5574243 156.565464,77.8102648 156.565464,70.3568084 Z" fill="#ffffff">

</path>
</svg>